<svg xmlns="http://www.w3.org/2000/svg" width="367" height="135" viewBox="0 0 97.06 35.71" class="undefined"><style>.a{fill:#fff;stroke-width:0.4;}.b{fill:#c0d06c;stroke-width:0.4;}.c{fill:#54c5d0;stroke-width:0.4;}</style><path d="m13.77 26.59c-0.11 0-0.21 0.02-0.29 0.06-0.09 0.04-0.17 0.09-0.24 0.16-0.07 0.07-0.12 0.15-0.16 0.24l0 0c-0.04 0.09-0.06 0.19-0.06 0.29l0 1.81v0.17h0c0 0.07 0 0.13 0 0.19v0.46c0 0.46 0 1.1 0 2.72 0 0.11 0.02 0.2 0.06 0.29l0 0c0.04 0.09 0.09 0.17 0.16 0.24 0.07 0.07 0.15 0.12 0.24 0.16h0c0.09 0.04 0.19 0.06 0.29 0.06h4.66v1.92h-4.66c-0.36 0-0.71-0.07-1.02-0.2-0.33-0.13-0.62-0.33-0.87-0.58-0.25-0.25-0.44-0.54-0.58-0.87-0.13-0.32-0.2-0.66-0.2-1.02l0-4.19v-0.17h0v-0.99c0-0.36 0.07-0.71 0.2-1.02 0.14-0.33 0.33-0.62 0.58-0.87 0.25-0.25 0.54-0.44 0.87-0.58 0.32-0.13 0.66-0.2 1.02-0.2h1.13v1.92zm13.31-0.07h-4.46c-0.11 0-0.21 0.02-0.29 0.06-0.09 0.04-0.17 0.09-0.24 0.16-0.07 0.07-0.12 0.15-0.16 0.24l0 0c-0.04 0.09-0.06 0.19-0.06 0.29v2.46h0c0 0.08 0 0.15 0 0.21l0 0.97c0 0.38 0 0.93 0 1.84 0 0.11 0.02 0.2 0.06 0.29l0 0c0.04 0.09 0.09 0.17 0.16 0.24 0.07 0.07 0.15 0.12 0.24 0.16 0.09 0.04 0.19 0.06 0.29 0.06h4.47c0.11 0 0.21-0.02 0.29-0.06 0.09-0.04 0.17-0.09 0.24-0.16 0.07-0.07 0.12-0.15 0.16-0.24 0.04-0.09 0.06-0.19 0.06-0.29 0-1.59 0-2.1 0-2.46v-0.36c0-0.06 0-0.13 0-0.21h0l0-0.17 0-2.29c0-0.11-0.02-0.2-0.06-0.29l0 0c-0.04-0.09-0.09-0.17-0.16-0.24-0.07-0.07-0.15-0.12-0.24-0.16-0.09-0.04-0.19-0.06-0.29-0.06zm0-1.92c0.36 0 0.71 0.07 1.02 0.2 0.33 0.13 0.62 0.33 0.87 0.58 0.25 0.25 0.44 0.54 0.58 0.87v0c0.13 0.32 0.2 0.66 0.2 1.02v1.13h0v0.17l0 4.19c0 0.36-0.07 0.71-0.2 1.02-0.14 0.33-0.33 0.62-0.58 0.87-0.25 0.25-0.54 0.44-0.87 0.58-0.32 0.13-0.66 0.2-1.02 0.2h-4.47c-0.36 0-0.71-0.07-1.02-0.2-0.33-0.13-0.62-0.33-0.87-0.58-0.25-0.25-0.44-0.54-0.58-0.87-0.13-0.32-0.2-0.66-0.2-1.02l0-4.19v-0.17h0v-1.13c0-0.36 0.07-0.71 0.2-1.02v0c0.14-0.33 0.33-0.62 0.58-0.87 0.25-0.25 0.54-0.44 0.87-0.58 0.32-0.13 0.66-0.2 1.02-0.2zm19.72 0c0.36 0 0.71 0.07 1.02 0.2 0.33 0.13 0.62 0.33 0.87 0.58 0.25 0.25 0.44 0.54 0.58 0.87 0.13 0.32 0.2 0.66 0.2 1.02V28.68h0v0.17l0 1.96v0.17h-4.67v-1.91h2.74v-1.85c0-0.11-0.02-0.2-0.06-0.29l0 0c-0.04-0.09-0.09-0.17-0.16-0.24-0.07-0.07-0.15-0.12-0.24-0.16-0.09-0.04-0.19-0.06-0.29-0.06h-4.46c-0.11 0-0.21 0.02-0.29 0.06-0.09 0.04-0.17 0.09-0.24 0.16-0.07 0.07-0.12 0.15-0.16 0.24l0 0c-0.04 0.09-0.06 0.19-0.06 0.29v2.29 0.17h0v0.22c0 0.07 0 0.13 0 0.19l0 0.7c0 0.35 0 0.89 0 1.79 0 0.1 0.02 0.2 0.06 0.29l0 0c0.04 0.09 0.09 0.17 0.16 0.24 0.07 0.07 0.15 0.12 0.24 0.16h0c0.09 0.04 0.19 0.06 0.29 0.06h5.56v1.92h-5.56c-0.36 0-0.71-0.07-1.02-0.2-0.33-0.13-0.62-0.33-0.87-0.58-0.25-0.25-0.44-0.54-0.58-0.87-0.13-0.32-0.2-0.66-0.2-1.02l0-3.71v-0.17h0V27.21c0-0.36 0.07-0.71 0.2-1.02 0.14-0.33 0.33-0.62 0.58-0.87 0.25-0.25 0.54-0.44 0.87-0.58 0.32-0.13 0.66-0.2 1.02-0.2zm11.69 0c0.36 0 0.71 0.07 1.02 0.2 0.33 0.13 0.62 0.33 0.87 0.58 0.25 0.25 0.44 0.54 0.58 0.87 0.13 0.32 0.2 0.66 0.2 1.02v1.09h-1.92v-1.16c0-0.11-0.02-0.2-0.06-0.29l0 0c-0.04-0.09-0.09-0.17-0.16-0.24-0.07-0.07-0.15-0.12-0.24-0.16-0.09-0.04-0.19-0.06-0.29-0.06h-4.46c-0.11 0-0.21 0.02-0.29 0.06-0.09 0.04-0.17 0.09-0.24 0.16-0.07 0.07-0.12 0.15-0.16 0.24l0 0c-0.04 0.09-0.06 0.19-0.06 0.29l0 2.02v0.17c0 0.07 0 0.14 0 0.2v1.1c0 0.41 0 1 0 1.93 0 0.11 0.02 0.2 0.06 0.29l0 0c0.04 0.09 0.09 0.17 0.16 0.24 0.07 0.07 0.15 0.12 0.24 0.16h0c0.09 0.04 0.19 0.06 0.29 0.06h5.79v1.92h-5.79c-0.36 0-0.71-0.07-1.02-0.2-0.33-0.13-0.62-0.33-0.87-0.58-0.25-0.25-0.44-0.54-0.58-0.87-0.13-0.32-0.2-0.66-0.2-1.02l0-4.05v-0.17h0v-1.13c0-0.36 0.07-0.71 0.2-1.02 0.14-0.33 0.33-0.62 0.58-0.87 0.25-0.25 0.54-0.44 0.87-0.58 0.32-0.13 0.66-0.2 1.02-0.2zM33.82 23.12v1.55h2.87v1.92h-2.87v3h0v0.21c0 0.07 0 0.14 0 0.21l0 0.76c0 0.38 0 0.93 0 1.84 0 0.11 0.02 0.2 0.06 0.29l0 0c0.04 0.09 0.09 0.17 0.16 0.24 0.07 0.07 0.15 0.12 0.24 0.16h0c0.09 0.04 0.19 0.06 0.29 0.06h3.29v1.92h-3.29c-0.36 0-0.71-0.07-1.02-0.2-0.33-0.13-0.62-0.33-0.87-0.58-0.25-0.25-0.44-0.54-0.58-0.87-0.13-0.32-0.2-0.66-0.2-1.02l0-3.71v-0.17h0v-5.62zm30.9-0.07v1.74c0.02-0.01 0.04-0.02 0.07-0.04 0.09-0.04 0.19-0.08 0.3-0.11 0.12-0.04 0.25-0.06 0.36-0.08h0c0.14-0.02 0.26-0.03 0.36-0.03h3.92c0.36 0 0.71 0.07 1.02 0.2 0.33 0.14 0.62 0.33 0.87 0.58 0.25 0.25 0.44 0.54 0.58 0.87v0c0.13 0.32 0.2 0.66 0.2 1.02v1.13h0l0 0.17 0 5.99v0.17h-1.91c-0.02-2.48-0.01-4.97-0.01-7.46 0-0.11-0.02-0.2-0.06-0.29l0 0c-0.04-0.09-0.09-0.17-0.16-0.24-0.07-0.07-0.15-0.12-0.24-0.16-0.09-0.04-0.19-0.06-0.29-0.06h-4.26c-0.1 0-0.19 0.02-0.28 0.05-0.09 0.03-0.17 0.08-0.24 0.14h0c-0.07 0.06-0.12 0.12-0.16 0.2v0c-0.04 0.07-0.06 0.15-0.06 0.23 0 1.99 0 3.97 0 5.96 0 0.53 0.4 0.72 0.85 0.76v1.92l-0.17 0c-1.44-0.04-2.6-1.22-2.6-2.67l0-4.53v-0.17h0v-5.28zM6.95 30.9H2.67c-0.36 0-0.71-0.07-1.03-0.2-0.33-0.13-0.62-0.33-0.87-0.58-0.25-0.24-0.44-0.54-0.58-0.87-0.13-0.32-0.2-0.66-0.2-1.03v-0.75c0-0.36 0.07-0.71 0.2-1.02 0.14-0.33 0.33-0.62 0.58-0.87 0.25-0.25 0.54-0.44 0.87-0.58 0.32-0.13 0.66-0.2 1.02-0.2H5.56v1.92H2.67c-0.11 0-0.2 0.02-0.29 0.06h0c-0.09 0.04-0.17 0.09-0.24 0.16-0.07 0.07-0.12 0.15-0.16 0.24l0 0c-0.04 0.09-0.06 0.19-0.06 0.29v0.75c0 0.11 0.02 0.21 0.06 0.3 0.04 0.09 0.09 0.18 0.16 0.24l0 0 0 0c0 0 0 0 0 0 0.07 0.07 0.15 0.12 0.24 0.16 0.09 0.04 0.19 0.06 0.3 0.06H6.95c0.36 0 0.71 0.07 1.02 0.2h0c0.33 0.14 0.62 0.33 0.87 0.58 0.25 0.25 0.45 0.54 0.58 0.87 0.13 0.32 0.2 0.66 0.2 1.02v0.94c0 0.36-0.07 0.71-0.2 1.02-0.14 0.33-0.33 0.62-0.58 0.87-0.25 0.25-0.54 0.44-0.87 0.58C7.65 35.21 7.31 35.28 6.95 35.28H2.4V33.36H6.95c0.11 0 0.21-0.02 0.29-0.06 0.09-0.04 0.17-0.09 0.24-0.16 0.07-0.07 0.12-0.15 0.16-0.24l0 0c0.04-0.09 0.06-0.19 0.06-0.29V31.66c0-0.11-0.02-0.21-0.06-0.3-0.04-0.09-0.09-0.18-0.16-0.24-0.07-0.07-0.15-0.12-0.24-0.16-0.09-0.04-0.19-0.06-0.3-0.06" class="a"/><path d="M81.77 0H92.23c2.66 0 4.83 2.17 4.83 4.83V15.29c0 2.66-2.17 4.83-4.83 4.83H81.77c-1.33 0-2.53-0.54-3.41-1.42h0C77.48 17.83 76.94 16.62 76.94 15.29V4.83c0-1.33 0.54-2.54 1.42-3.41h0c0.87-0.87 2.08-1.42 3.41-1.42zm0 2.02c-0.77 0-1.48 0.32-1.98 0.82h0c-0.51 0.51-0.82 1.21-0.82 1.98V15.29c0 0.77 0.32 1.47 0.82 1.98h0c0.51 0.51 1.21 0.82 1.98 0.82h10.46c1.54 0 2.81-1.26 2.81-2.81V4.83c0-1.54-1.26-2.81-2.81-2.81H81.77" class="b"/><path d="m76.98 24.38h19.64v2.25H76.98Z" class="c"/></svg>
